SplineFontDB: 3.0
FontName: JannonStM-Italic
FullName: Sorts Mill Jannon Italic
FamilyName: Sorts Mill Jannon
Weight: Regular
Copyright: Copyright (C) 2010 Barry Schwartz
UComments: "2010-10-25: Created." 
Version: 0.2
ItalicAngle: -17
UnderlinePosition: -100
UnderlineWidth: 50
Ascent: 700
Descent: 300
LayerCount: 3
Layer: 0 0 "Back"  1
Layer: 1 0 "Fore"  0
Layer: 2 0 "backup"  0
NeedsXUIDChange: 1
XUID: [1021 658 797806517 4457680]
OS2Version: 0
OS2_WeightWidthSlopeOnly: 0
OS2_UseTypoMetrics: 1
CreationTime: 1287988937
ModificationTime: 1288172172
OS2TypoAscent: 0
OS2TypoAOffset: 1
OS2TypoDescent: 0
OS2TypoDOffset: 1
OS2TypoLinegap: 0
OS2WinAscent: 0
OS2WinAOffset: 1
OS2WinDescent: 0
OS2WinDOffset: 1
HheadAscent: 0
HheadAOffset: 1
HheadDescent: 0
HheadDOffset: 1
OS2Vendor: 'PfEd'
MarkAttachClasses: 1
DEI: 91125
Encoding: UnicodeBmp
UnicodeInterp: none
NameList: Adobe Glyph List
DisplaySize: -48
AntiAlias: 1
FitToEm: 1
WinInfo: 24 12 4
BeginChars: 65536 73

StartChar: a
Encoding: 97 97 0
Width: 466
VWidth: 0
Flags: HW
HStem: -6 66<63.5057 129.676> 337 35<275.559 358.378> 382 20G<398 415>
VStem: 20 72<45 129.812>
LayerCount: 3
Fore
SplineSet
445 385 m 0
 445 377 440 366 434 353 c 0
 402 281 311 101 311 85 c 0
 311 78 313 75 319 75 c 0
 332 75 370 110 406 157 c 0
 413 166 419 176 425 185 c 0
 429 191 441 190 441 181 c 0
 441 147 312 -6 261 -6 c 0
 243 -6 236 5 236 18 c 0
 236 45 257 81 266 99 c 0
 274 116 285 135 285 144 c 0
 285 147 284 149 281 149 c 0
 276 149 261 130 239 109 c 0
 207 78 123 -8 69 -8 c 0
 35 -8 20 30 20 60 c 0
 20 152 200 372 344 372 c 0
 354 372 363 370 368 370 c 0
 377 370 378 376 381 386 c 0
 383 394 390 402 406 402 c 0
 424 402 445 400 445 385 c 0
92 84 m 0
 92 76 92 60 116 60 c 0
 168 60 349 239 349 323 c 0
 349 332 340 337 332 337 c 0
 242 337 92 174 92 84 c 0
EndSplineSet
EndChar

StartChar: b
Encoding: 98 98 1
Width: 399
VWidth: 0
Flags: HW
HStem: -13 34<170.339 304.979> 356 51<174.244 288.764> 654 20G<117.5 123.5>
VStem: 64 63<54.2284 348.578 366.637 599.875> 374 67<114.638 268.709>
LayerCount: 3
Fore
SplineSet
370 314 m 0
 370 168 235 -8 99 -8 c 0
 56 -8 27 26 27 65 c 0
 27 87 34 111 43 145 c 0
 74 261 143 478 174 576 c 0
 179 591 187 614 187 621 c 0
 187 632 180 640 160 641 c 0
 146 642 130 641 130 657 c 0
 130 672 147 672 160 674 c 0
 197 678 246 685 260 685 c 0
 274 685 280 676 280 665 c 0
 280 659 278 652 276 646 c 2
 149 300 l 2
 142 283 137 270 137 264 c 0
 137 261 139 260 140 260 c 0
 143 260 149 267 160 283 c 0
 185 320 250 409 310 409 c 0
 354 409 370 360 370 314 c 0
295 358 m 0
 238 358 82 161 82 66 c 0
 82 28 98 20 112 20 c 0
 172 20 319 212 319 322 c 0
 319 338 311 358 295 358 c 0
EndSplineSet
EndChar

StartChar: c
Encoding: 99 99 2
Width: 303
VWidth: 0
Flags: HW
HStem: -19 61<67.333 196.592> 390 41<59.342 175.48>
VStem: -77 71<121.475 290.911>
LayerCount: 3
Fore
SplineSet
317 364 m 0
 317 344 301 327 280 327 c 0
 248 327 241 368 209 368 c 0
 169 368 147 325 129 287 c 0
 103 231 89 172 89 100 c 0
 89 75 104 54 131 54 c 0
 160 54 198 88 215 121 c 0
 220 130 222 142 235 142 c 0
 241 142 247 137 247 130 c 0
 247 99 188 -8 107 -8 c 0
 34 -8 30 56 30 98 c 0
 30 130 42 218 81 298 c 0
 100 338 132 374 167 394 c 0
 187 406 208 412 232 412 c 0
 261 412 317 405 317 364 c 0
EndSplineSet
EndChar

StartChar: d
Encoding: 100 100 3
Width: 453
VWidth: 0
Flags: HW
HStem: -13 72<68.2274 129.648 285.952 326.567> 359 28<253.335 338.343> 634 31<332.826 412.746>
VStem: 26 65<28 150.7> 257 57<3.24487 151.641> 413 84<578.574 660>
LayerCount: 3
Fore
SplineSet
282 -13 m 0
 264 -13 257 2 257 18 c 0
 257 49 266 105 275 138 c 0
 277 146 278 151 278 154 c 0
 278 156 277 157 276 157 c 0
 273 157 265 147 255 134 c 0
 214 79 130 -14 73 -14 c 0
 45 -14 26 13 26 43 c 0
 26 176 138 342 259 379 c 0
 277 384 292 387 308 387 c 0
 322 387 333 385 340 385 c 0
 347 385 352 387 354 396 c 0
 367 446 413 602 413 615 c 0
 413 627 406 634 390 634 c 0
 384 634 352 631 349 631 c 0
 340 631 332 635 332 644 c 0
 332 662 351 665 356 665 c 2
 479 668 l 2
 492 668 497 666 497 654 c 0
 497 648 494 640 491 629 c 0
 475 577 450 493 420 403 c 0
 370 252 314 92 314 76 c 0
 314 66 320 65 326 65 c 0
 348 65 388 119 422 167 c 0
 428 175 433 177 440 174 c 0
 449 170 442 154 439 148 c 0
 414 100 330 -13 282 -13 c 0
108 59 m 0
 150 59 230 133 283 210 c 0
 316 258 340 330 340 338 c 0
 340 358 310 359 294 359 c 0
 200 359 91 156 91 88 c 0
 91 76 95 59 108 59 c 0
EndSplineSet
EndChar

StartChar: e
Encoding: 101 101 4
Width: 338
VWidth: 0
Flags: HW
HStem: -24 63<87.943 223.299> 259 29<33 211.953> 379 29<101.087 200.215>
VStem: -44 58<117.935 258.367> 232 77<275 327.895>
LayerCount: 3
Fore
SplineSet
246 394 m 0
 286 394 300 365 300 332 c 0
 300 302 289 269 276 251 c 0
 240 199 167 163 108 155 c 0
 93 153 91 138 91 109 c 0
 91 76 105 48 122 48 c 0
 149 48 196 88 215 116 c 0
 225 130 229 144 239 144 c 0
 245 144 250 140 250 134 c 0
 250 75 145 -13 104 -13 c 0
 46 -13 32 61 32 121 c 0
 32 182 58 241 89 285 c 0
 127 339 199 394 246 394 c 0
250 324 m 0
 250 340 239 354 222 354 c 0
 183 354 146 308 124 267 c 0
 114 249 103 219 103 200 c 0
 103 192 103 181 119 181 c 0
 157 181 250 272 250 324 c 0
EndSplineSet
EndChar

StartChar: f
Encoding: 102 102 5
Width: 270
VWidth: 0
Flags: HW
HStem: -4 29<16.0118 95.6891 180.752 259.989> 331 32<35.0964 85.2515> 349 42<173.872 270.916> 356 39<190.361 285.996> 643 43<215.899 327.653>
VStem: 105 67<30.6543 336.764 391.005 528.822>
LayerCount: 3
Fore
SplineSet
-65 -156 m 0
 -43 -156 -39 -184 -18 -184 c 0
 0 -184 8 -165 12 -149 c 0
 53 8 96 268 110 342 c 0
 111 347 111 350 111 353 c 0
 111 361 108 364 98 364 c 2
 49 363 l 2
 30 363 26 368 26 381 c 0
 26 390 33 395 46 395 c 2
 111 394 l 2
 119 394 118.588867188 396.08203125 124 422 c 0
 143 513 168.846679688 664 264 664 c 0
 302 664 329 639 329 606 c 0
 329 573 313 561 290 561 c 0
 280 561 270 566 264 578 c 0
 259 587 258 598 258 608 c 0
 258 613 254 618 245 618 c 0
 222 618 211 556 206 531 c 0
 197 489 188 441 183 415 c 0
 182 410 181 406 181 403 c 0
 181 396 185 395 196 395 c 2
 231 395 l 2
 243 395 247 395 246 380 c 0
 245 368 245 364 228 364 c 0
 214 364 198 365 185 365 c 0
 174 365 172 363 169 348 c 0
 158 283 121 52 84 -82 c 0
 68 -139 29 -193 -12 -217 c 0
 -21 -222 -32 -225 -44 -225 c 0
 -69 -225 -95 -213 -95 -188 c 0
 -95 -170 -80 -156 -65 -156 c 0
EndSplineSet
EndChar

StartChar: g
Encoding: 103 103 6
Width: 359
VWidth: 0
Flags: HW
HStem: -257 28<38.1356 185.376> 341 51<266.001 343.691> 376 24<165.884 208.472>
VStem: -55 48<-199.156 -96.2547> 45 61<27.4512 79.219> 218 48<210.408 340.251> 280 57<-169.428 -75.6062>
LayerCount: 3
Fore
SplineSet
-55 -156 m 0xde
 -55 -78 30 -39 84 -24 c 0
 97 -20 102 -20 102 -17 c 0
 102 -15 92 -9 84 0 c 0
 79 6 45 34 45 57 c 0
 45 72 65 78 80 86 c 0
 97 94 103 100 103 106 c 0
 103 113 93 121 81 135 c 0
 70 148 58 169 58 213 c 0
 58 300 121 400 188 400 c 0xbe
 219 400 234 392 260 392 c 0
 286 392 307 393 332 393 c 0
 340 393 344 386 344 379 c 2
 344 367 l 2
 344 350 332 341 317 341 c 2
 278 341 l 2
 268 341 266 340 266 325 c 0
 266 315 267 291 267 284 c 0
 267 209 225 140 169 117 c 0
 159 113 150 109 143 104 c 0
 129 94 106 70 106 56 c 0
 106 25 164 13 189 8 c 0
 248 -5 337 -21 337 -104 c 0
 337 -202 215 -257 107 -257 c 0
 30 -257 -55 -233 -55 -156 c 0xde
98 -229 m 0
 187 -229 280 -189 280 -116 c 0
 280 -86 246 -52 178 -40 c 0
 164 -37 150 -37 137 -37 c 0
 105 -37 82 -42 60 -56 c 0
 24 -78 -7 -112 -7 -153 c 0
 -7 -193 36 -229 98 -229 c 0
108 180 m 0
 108 158 111 126 131 126 c 0
 177 126 218 247 218 326 c 0
 218 349 209 376 190 376 c 0
 139 376 108 246 108 180 c 0
EndSplineSet
EndChar

StartChar: h
Encoding: 104 104 7
Width: 452
VWidth: 0
Flags: HW
HStem: -0 41<178.846 272.976> 341 48<296.24 380.5> 637 24<160.293 207.998>
VStem: 216 91<597.102 657> 358 56<194.396 340.347>
DStem2: 56 129 63 -5 0.352405 0.935848<-134.017 68.3327 91.6634 505.064>
LayerCount: 3
Fore
SplineSet
172 661 m 0
 194 661 211 662 231 663 c 0
 264 665 291 668 296 668 c 0
 305 668 307 661 307 653 c 0
 307 646 305 639 304 635 c 0
 261 519 195 343 155 245 c 0
 143 217 135 201 135 197 c 1
 136 196 l 1
 138 196 147 208 167 234 c 0
 214 297 288 389 361 389 c 0
 400 389 414 340 414 284 c 0
 414 162 325 0 202 -0 c 0
 185 0 162 7 162 31 c 0
 162 47 174 61 193 61 c 0
 210 61 232 41 245 41 c 0
 301 41 358 246 358 301 c 0
 358 315 354 341 341 341 c 0
 288 341 221 260 152 168 c 0
 125 132 124 129 108 92 c 0
 95 63 74 17 63 -5 c 0
 61 -9 47 -14 41 -14 c 0
 28 -14 12 -13 12 2 c 0
 12 9 32 59 56 129 c 2
 164 446 l 2
 192 530 216 598 216 609 c 0
 216 633 184 633 165 637 c 0
 161 638 160 642 160 646 c 0
 160 653 164 661 172 661 c 0
EndSplineSet
EndChar

StartChar: i
Encoding: 105 105 8
Width: 272
VWidth: 0
Flags: HW
HStem: -10 64<33.6052 111.719> 331 70<142.855 218.473> 537 80<186.242 245>
VStem: 19 82<4.77962 77.9239> 159 78<295.54 384.434> 178 75<543.514 609.627>
LayerCount: 3
Fore
SplineSet
34 246 m 4xf8
 34 266 124 401 202 401 c 4
 228 401 237 390 237 371 c 4
 237 358 233 342 227 324 c 4
 196 227 101 102 101 68 c 4
 101 60 102 54 110 54 c 4
 143 54 201 120 220 135 c 4
 226 140 234 136 234 128 c 4
 234 111 124 -10 45 -10 c 4
 31 -10 19 -5 19 13 c 4
 19 65 127 226 153 295 c 4
 156 302 159 310 159 317 c 4
 159 325 155 331 144 331 c 4
 120 331 83 281 54 245 c 4
 48 238 34 237 34 246 c 4xf8
210 537 m 0
 190 537 178 552 178 568 c 0
 178 591 196 617 222 617 c 0
 242 617 253 603 253 587 c 0xf4
 253 565 238 537 210 537 c 0
EndSplineSet
EndChar

StartChar: j
Encoding: 106 106 9
Width: 257
VWidth: 0
Flags: HW
HStem: -234 21G<16 24> 567 82<39.0117 108.672>
VStem: 33 82<572.48 643.759> 81 69<-97.6011 419>
LayerCount: 3
Fore
SplineSet
-106 -213 m 0
 -106 -201 -93 -187 -80 -187 c 0
 -65 -187 -58 -196 -50 -205 c 0
 -46 -210 -43 -217 -34 -217 c 0
 -18 -217 -7 -198 -1 -180 c 2
 78 75 l 2
 100 146 120 218 146 294 c 0
 149 303 149 317 138 317 c 0
 118 317 73 258 44 224 c 0
 40 219 34 210 23 215 c 0
 15 219 20 230 24 237 c 0
 47 277 152 397 210 397 c 0
 217 397 220 390 220 383 c 0
 220 357 184 220 141 82 c 0
 111 -16 79 -116 49 -178 c 0
 29 -220 -11 -247 -46 -247 c 0
 -83 -247 -106 -230 -106 -213 c 0
204 620 m 0xe0
 228 620 244 602 244 584 c 0
 244 561 229 538 201 538 c 0
 177 538 162 557 162 576 c 0
 162 598 178 620 204 620 c 0xe0
EndSplineSet
EndChar

StartChar: k
Encoding: 107 107 10
Width: 424
VWidth: 0
Flags: HW
HStem: -8 30<314.351 357.611> 181 19<126 154> 366 35<257.66 343.456> 641 17<116.824 153.183>
VStem: 344 28<314.861 364.022> 358 40<22.3098 81.6142>
LayerCount: 3
Fore
SplineSet
183 334 m 0xf4
 217 362 266 401 321 401 c 0
 347 401 372 386 372 347 c 0xf8
 372 280 313 229 266 200 c 0
 228 177 209 179 209 173 c 0
 209 169 217 162 232 144 c 0
 264 106 313 22 336 22 c 0
 348 22 358 26 358 38 c 0
 358 54 340 57 340 72 c 0
 340 88 358 94 368 94 c 0
 386 94 398 76 398 58 c 0
 398 31 371 -8 332 -8 c 0
 254 -8 200 86 162 141 c 0
 143 169 133 181 126 181 c 0
 121 181 117 176 114 166 c 0
 103 129 83 65 62 7 c 0
 60 0 52 -7 44 -7 c 0
 33 -7 18 -7 18 11 c 0
 18 18 125 371 177 604 c 0
 179 614 176 621 168 626 c 0
 149 637 131 637 120 641 c 0
 112 644 116 657 127 658 c 0
 161 660 182 662 206 664 c 0
 221 665 244 669 248 669 c 0
 262 669 263 655 260 646 c 2
 164 342 l 2
 159 325 156 316 156 313 c 2
 156 312 l 1
 158 312 166 320 183 334 c 0xf4
136 218 m 0
 136 206 143 200 154 200 c 0
 233 200 344 311 344 344 c 0
 344 360 334 366 319 366 c 0
 296 366 264 352 250 345 c 0
 192 315 136 258 136 218 c 0
EndSplineSet
EndChar

StartChar: l
Encoding: 108 108 11
Width: 292
VWidth: 0
Flags: HW
HStem: -11 74<39.9784 107.743> 639 34<149.035 211.804> 656 20G<279 290>
VStem: 24 71<3.50033 86.4989> 213 92<592.781 667.377>
LayerCount: 3
Fore
SplineSet
24 14 m 0xb8
 24 48 72 165 116 304 c 2
 210 600 l 2
 212 606 213 611 213 615 c 0
 213 633 196 636 175 639 c 0
 159 641 149 643 149 657 c 0
 149 672 161 673 175 673 c 0xd8
 243 673 276 676 282 676 c 0
 298 676 305 674 305 661 c 0
 305 641 182 313 100 97 c 0
 97 90 95 82 95 76 c 0
 95 68 99 63 106 63 c 0
 124 63 152 91 166 105 c 0
 187 126 209 152 229 175 c 0
 233 180 242 190 250 190 c 0
 257 190 262 186 262 180 c 0
 262 173 258 165 255 160 c 0
 241 137 218 107 190 78 c 0
 145 32 90 -11 51 -11 c 0
 36 -11 24 -2 24 14 c 0xb8
EndSplineSet
EndChar

StartChar: m
Encoding: 109 109 12
Width: 694
VWidth: 0
Flags: HW
HStem: -1 24<16.0464 81.3636 277.078 329.448 419.929 478.965 518.128 578.781 668.569 727.951> 378 47<226.286 323.866 462.686 567.201>
VStem: 95 66<29.5634 339.147> 344 66<30.5934 349.219> 594 69<30.1191 349.172>
LayerCount: 3
Fore
SplineSet
603 396 m 0
 641 396 659 368 659 335 c 0
 659 281 554 129 521 75 c 0
 519 71 518 67 518 63 c 0
 518 56 522 50 532 50 c 0
 557 50 605 104 631 135 c 0
 636 140 641 145 647 145 c 0
 652 145 656 142 656 132 c 0
 656 109 558 -15 458 -15 c 0
 442 -15 434 -3 434 11 c 0
 434 44 540 203 581 280 c 0
 588 293 597 314 597 331 c 0
 597 343 592 353 576 353 c 0
 561 353 543 340 527 327 c 0
 489 296 443 240 401 180 c 0
 354 113 310 42 281 -6 c 0
 276 -13 262 -15 252 -15 c 0
 238 -15 224 -12 224 -2 c 0
 224 0 225 2 226 4 c 0
 274 105 346 234 370 295 c 0
 373 303 378 317 378 328 c 0
 378 338 374 346 361 346 c 0
 320 346 233 258 169 150 c 0
 138 98 109 48 85 -6 c 0
 82 -13 73 -15 63 -15 c 0
 47 -15 32 -12 32 0 c 0
 32 20 57 70 75 109 c 0
 103 170 137 240 153 283 c 0
 157 293 163 308 163 319 c 0
 163 328 159 331 154 331 c 0
 141 331 117 310 111 305 c 0
 84 279 53 243 44 237 c 0
 38 234 31 235 31 242 c 0
 31 250 38 263 42 269 c 0
 67 305 143 393 198 393 c 0
 214 393 224 384 224 368 c 0
 224 336 199 276 178 231 c 0
 168 209 164 200 164 195 c 1
 165 195 172 205 186 223 c 0
 236 290 320 395 398 395 c 0
 416 395 438 385 438 364 c 0
 438 340 416 292 396 250 c 0
 381 219 374 202 374 198 c 0
 374 197 375 197 375 197 c 1
 378 197 392 215 414 247 c 0
 463 317 538 396 603 396 c 0
EndSplineSet
EndChar

StartChar: n
Encoding: 110 110 13
Width: 440
VWidth: 0
Flags: HW
HStem: -11 69<231.458 306.378> 359 43<291.21 369.987>
VStem: 18 55<-6.26571 48.2378> 128 59<264.921 383.196> 214 83<6.49072 73.8337> 346 67<280.648 358.743>
DStem2: 251 112 311 112 0.409225 0.912434<-20.8015 242.485>
LayerCount: 3
Fore
SplineSet
43 312 m 0
 78 356 119 402 155 402 c 0
 175 402 187 386 187 366 c 0
 187 340 177 304 167 270 c 0
 156 235 151 217 151 211 c 0
 151 210 151 209 152 209 c 0
 155 209 169 231 193 266 c 0
 230 322 279 404 366 404 c 0
 394 404 413 384 413 351 c 0
 413 324 379 251 363 217 c 0
 345 178 324 140 311 112 c 0
 306 100 297 80 297 68 c 0
 297 62 299 58 305 58 c 0
 334 58 376 110 391 129 c 0
 395 134 400 138 404 139 c 0
 408 140 414 136 414 129 c 0
 414 117 402 101 396 93 c 0
 356 42 294 -11 245 -11 c 0
 227 -11 214 0 214 18 c 0
 214 34 231 70 251 112 c 0
 278 168 312 237 333 284 c 0
 337 294 346 318 346 336 c 0
 346 349 342 359 328 359 c 0
 311 359 285 339 271 324 c 0
 224 275 167 188 148 154 c 0
 120 104 99 57 73 6 c 0
 69 -3 53 -7 44 -7 c 0
 30 -7 18 -1 18 10 c 0
 18 18 28 44 38 72 c 0
 65 150 128 301 128 321 c 0
 128 330 125 333 120 333 c 0
 104 333 77 305 66 294 c 0
 52 280 39 267 32 267 c 0
 29 267 22 271 22 275 c 0
 22 287 38 306 43 312 c 0
EndSplineSet
EndChar

StartChar: o
Encoding: 111 111 14
Width: 373
VWidth: 0
Flags: HW
HStem: -10 30<85.5999 138.081> 363 32<216.209 265.655>
VStem: 28 49<23.3259 160.697> 270 55<216.349 362.265>
LayerCount: 3
Fore
SplineSet
247 395 m 0
 310 395 325 341 325 289 c 0
 325 152 223 -10 103 -10 c 0
 49 -10 28 31 28 108 c 0
 28 193 117 395 247 395 c 0
145 260 m 0
 117 212 94 156 83 112 c 0
 80 99 77 84 77 70 c 0
 77 43 86 20 112 20 c 0
 128 20 146 38 168 67 c 0
 216 130 270 241 270 318 c 0
 270 343 264 363 247 363 c 0
 214 363 168 299 145 260 c 0
EndSplineSet
EndChar

StartChar: p
Encoding: 112 112 15
Width: 436
VWidth: 0
Flags: HW
HStem: -243 29<108.421 190.909> -235 23<-35.7846 23.4921 109.01 170.692> -6 22<171.999 221.57> 317 31<40.0289 137.534> 356 29<237.187 315.02>
VStem: 196 66<409.937 503.036> 332 68<202.062 345.767>
DStem2: 39 -162 140 -18 0.234787 0.972047<-2.22837 176.579 535.415 552.292 587.175 689.587>
LayerCount: 3
Fore
SplineSet
229 504 m 2x7e
 248 504 l 2
 256 504 262 503 262 494 c 0
 262 485 251 446 242 416 c 0
 239 406 237 399 237 394 c 0
 237 388 240 383 248 385 c 0
 272 390 296 393 326 393 c 0
 376 393 400 361 400 317 c 0
 400 178 289 -6 195 -6 c 0
 177 -6 158 0 154 2 c 0
 149 5 143 -3 140 -18 c 0
 128 -70 105 -166 105 -181 c 0
 105 -199 110 -210 130 -212 c 2x7e
 159 -214 l 2
 177 -215 191 -218 191 -230 c 0
 191 -238 179 -243 172 -243 c 0xbe
 144 -243 122 -235 72 -235 c 0
 34 -235 13 -238 -14 -239 c 0
 -25 -239 -36 -237 -36 -226 c 0
 -36 -212 -24 -210 -9 -210 c 0
 26 -210 30 -198 39 -162 c 0
 78 -6 156 322 156 329 c 0
 156 333 154 334 150 334 c 0
 147 334 142 333 134 332 c 0
 113 329 60 317 55 317 c 0
 46 317 40 322 40 332 c 0
 40 339 50 347 56 348 c 0
 86 355 122 360 152 365 c 0
 169 368 173 369 177 393 c 0
 182 421 191 462 196 488 c 0
 198 499 214 504 229 504 c 2x7e
216 323 m 0
 200 265 161 115 161 61 c 0
 161 38 173 16 194 16 c 0
 258 16 332 186 332 304 c 0
 332 338 304 356 275 356 c 0
 266 356 252 355 243 353 c 0
 220 347 223 349 216 323 c 0
EndSplineSet
EndChar

StartChar: q
Encoding: 113 113 16
Width: 412
VWidth: 0
Flags: HW
HStem: -255 32<187.055 256.844 334.008 423.954> 19 26<202.413 255.371> 374 36<91.689 210.738> 400 20G<317 334.5>
VStem: -58 72<128.398 289.94> 258 76<-220.537 19.1391 46.2587 334.307>
LayerCount: 3
Fore
SplineSet
87 0 m 0
 51 0 24 36 24 81 c 0
 24 216 184 405 301 405 c 0
 318 405 335 401 348 401 c 0
 360 401 366 419 376 435 c 0
 379 440 385 446 391 446 c 0
 398 446 401 441 401 434 c 0
 401 427 398 420 396 415 c 0
 373 362 335 245 316 172 c 0
 275 13 231 -168 231 -188 c 0
 231 -207 264 -209 287 -209 c 2
 302 -209 l 2
 318 -209 328 -211 328 -222 c 0
 328 -237 313 -238 308 -238 c 2
 182 -238 l 2
 132 -238 99 -245 85 -245 c 0
 76 -245 66 -242 66 -233 c 0
 66 -218 76 -216 86 -216 c 2
 111 -216 l 2
 137 -216 153 -203 158 -188 c 0
 183 -109 216 15 236 93 c 0
 243 118 249 137 249 143 c 0
 249 144 249 145 248 145 c 0
 246 145 240 138 228 121 c 0
 193 72 133 0 87 0 c 0
102 44 m 0
 137 44 205 123 253 203 c 0
 286 258 308 313 308 342 c 0
 308 360 297 376 278 376 c 0
 207 376 72 146 72 76 c 0
 72 59 85 44 102 44 c 0
EndSplineSet
EndChar

StartChar: r
Encoding: 114 114 17
Width: 322
VWidth: 0
Flags: HW
HStem: -1 28<-11.6424 52.5858 133.317 219.491> 353 65<189.34 281.582>
VStem: 59 66<36.0186 323.667>
LayerCount: 3
Fore
SplineSet
145 417 m 0
 155 417 158 411 156 400 c 0
 148 344 130 250 114 187 c 0
 112 180 111 173 111 169 c 0
 111 164 112 161 114 161 c 0
 117 161 121 167 127 180 c 0
 150 230 172 283 197 331 c 0
 223 380 250 417 284 417 c 0
 311 417 313 392 313 368 c 0
 313 334 300 285 270 285 c 0
 260 285 254 291 254 302 c 0
 254 315 255 325 255 332 c 0
 255 340 254 343 251 343 c 0
 237 343 204 279 202 276 c 0
 150 178 120 110 72 8 c 0
 68 0 60 -2 51 -2 c 0
 36 -2 22 1 22 12 c 0
 22 41 69 172 88 251 c 0
 90 258 97 282 97 298 c 0
 97 307 95 314 87 314 c 0
 82 314 75 310 70 304 c 0
 58 291 46 265 32 242 c 0
 29 237 18 240 18 246 c 0
 18 288 98 417 145 417 c 0
EndSplineSet
EndChar

StartChar: s
Encoding: 115 115 18
Width: 335
VWidth: 0
Flags: HW
HStem: -6 24<73.967 135.528> 372 31<205.536 262.013>
VStem: 7 62<19.4159 91.7959> 136 57<220.364 359.32> 167 64<43.8881 220.364> 266 52<319.506 370.861>
LayerCount: 3
Fore
SplineSet
136 297 m 0xf4
 136 352 183 403 244 403 c 0
 283 403 318 386 318 347 c 0
 318 330 306 319 291 319 c 0
 275 319 270 328 266 346 c 0
 263 362 251 372 236 372 c 0
 216 372 193 352 193 328 c 0xf4
 193 302 198 282 202 264 c 0
 213 220 231 187 231 108 c 0
 231 40 171 -6 99 -6 c 0
 50 -6 7 21 7 60 c 0
 7 80 22 94 41 94 c 16
 58 94 69 80 69 63 c 2
 69 49 l 2
 69 32 75 18 104 18 c 0
 132 18 167 48 167 91 c 0xec
 167 170 136 217 136 297 c 0xf4
EndSplineSet
EndChar

StartChar: t
Encoding: 116 116 19
Width: 327
VWidth: 0
Flags: HW
HStem: 345 146<193.087 263.835> 345 48<225.002 316.965> 354 39<74.1414 135.996>
VStem: 190 62<418.895 489.719>
DStem2: 24 42 102 105 0.357967 0.933734<64.6489 320.97 407.339 482.759>
LayerCount: 3
Fore
SplineSet
93 393 m 2x30
 140 393 l 2x30
 154 393 161 393 164 400 c 0
 172 418 183 455 190 475 c 0
 194 486 204 491 219 491 c 0x90
 234 491 252 484 252 472 c 0
 252 464 241 441 229 416 c 0
 227 411 225 405 225 401 c 0
 225 396 228 393 237 393 c 2
 303 393 l 2x50
 315 393 317 381 317 370 c 0
 317 358 316 342 304 342 c 0
 282 342 227 345 216 345 c 0x90
 204 345 200 341 193 323 c 0
 166 252 131 168 102 105 c 0
 100 101 97 93 97 88 c 0
 97 83 99 79 106 79 c 0
 131 79 180 129 205 168 c 0
 211 177 226 174 226 161 c 0
 226 113 82 -3 34 -3 c 0
 23 -3 18 5 18 15 c 0
 18 24 21 34 24 42 c 2
 131 326 l 2
 134 334 136 339 136 343 c 0
 136 349 130 351 117 352 c 0
 112 352 86 354 82 354 c 0
 73 355 71 365 74 374 c 0
 77 384 81 393 93 393 c 2x30
EndSplineSet
EndChar

StartChar: u
Encoding: 117 117 20
Width: 454
VWidth: 0
Flags: HW
HStem: -6 55<233.517 308.174> 331 72<128 216.922>
VStem: 13 85<13.25 81.9231> 218 59<10.4482 105.643>
LayerCount: 3
Fore
SplineSet
28 263 m 0
 35 281 146 403 208 403 c 0
 221 403 231 393 231 378 c 0
 231 341 174 238 135 161 c 0
 114 121 98 88 98 76 c 0
 98 65 104 63 113 63 c 0
 139 63 204 120 272 214 c 0
 307 262 337 319 373 384 c 0
 381 398 393 399 405 399 c 0
 415 399 426 394 426 384 c 0
 426 371 378 270 337 187 c 0
 306 124 277 75 277 61 c 0
 277 53 283 50 291 50 c 0
 316 50 386 130 398 147 c 0
 401 151 411 154 411 143 c 0
 411 119 328 -4 248 -6 c 0
 230 -6 218 4 218 26 c 0
 218 47 230 83 242 111 c 0
 250 129 253 140 253 144 c 0
 253 145 253 146 252 146 c 0
 248 146 237 134 219 115 c 0
 173 67 97 -4 42 -4 c 0
 26 -4 13 7 13 23 c 0
 13 57 91 180 143 289 c 0
 145 293 151 307 151 318 c 0
 151 325 148 331 140 331 c 0
 116 331 64 273 42 251 c 0
 39 248 37 247 34 247 c 0
 30 247 26 251 26 255 c 0
 26 259 27 260 28 263 c 0
EndSplineSet
EndChar

StartChar: v
Encoding: 118 118 21
Width: 415
VWidth: 0
Flags: HW
HStem: -17 21G<170.5 183> 364 33<340.757 404.98>
LayerCount: 3
Fore
SplineSet
145 74 m 0
 145 61 151 47 166 47 c 0
 212 47 340 181 340 292 c 0
 340 329 330 340 324 354 c 0
 321 360 320 368 320 374 c 0
 320 392 331 405 352 405 c 0
 379 405 385 371 385 334 c 0
 385 205 239 0 118 0 c 0
 91 0 84 15 84 42 c 0
 84 138 153 267 153 303 c 0
 153 313 149 317 143 317 c 0
 124 317 105 297 96 288 c 0
 79 271 69 255 52 238 c 0
 48 234 35 229 35 242 c 0
 35 258 65 294 96 327 c 0
 131 364 166 399 194 399 c 0
 208 399 230 389 230 359 c 0
 230 299 145 130 145 74 c 0
EndSplineSet
EndChar

StartChar: w
Encoding: 119 119 22
Width: 611
VWidth: 0
Flags: HW
HStem: -8 63<106.002 161.401> -8 51<308 394.637> 316 75<129.5 196.767> 377 20G<394.5 408.5 543.5 565>
VStem: 65 67<20.1993 143.364> 142 73<262.255 367.402> 274 60<44.8589 154.551> 532 52<246.636 383.736>
LayerCount: 3
Fore
SplineSet
403 397 m 0x9f
 414 397 431 391 431 373 c 0
 431 369 430 364 428 359 c 0
 417 328 391 267 369 208 c 0
 357 175 334 117 334 79 c 0
 334 58 347 43 363 43 c 0
 420 43 532 185 532 292 c 0
 532 325 523 344 523 366 c 0
 523 384 533 404 554 404 c 0
 576 404 584 378 584 342 c 0
 584 232 453 -8 329 -8 c 0
 287 -8 274 19 274 58 c 0
 274 76 278 97 282 118 c 0
 283 125 288 138 283 138 c 0
 281 138 276 132 267 121 c 0
 235 77 161 -8 106 -8 c 0
 80 -8 65 17 65 43 c 0
 65 115 113 206 133 264 c 0
 134 268 142 288 142 302 c 0
 142 310 139 316 131 316 c 0
 128 316 123 314 118 311 c 0
 88 293 77 279 54 255 c 0
 50 251 43 245 37 245 c 0
 32 245 28 250 28 255 c 0
 28 259 30 263 32 267 c 0
 48 295 105 355 149 381 c 0
 161 388 172 391 182 391 c 0x6f
 201 391 215 378 215 347 c 0
 215 307 168 198 142 120 c 0
 138 109 132 90 132 76 c 0
 132 64 137 55 152 55 c 0
 218 55 324 255 370 378 c 0
 375 390 386 397 403 397 c 0x9f
EndSplineSet
EndChar

StartChar: x
Encoding: 120 120 23
Width: 544
VWidth: 0
Flags: HW
HStem: 0 74<352.54 395.676> 0 57<47 98.2822> 324 80<163.91 205.61> 342 63<440.46 509.6>
VStem: 18 62<57.0066 94.7236> 135 27<252.336 320.153> 246 56<169.79 236.509>
DStem2: 150 102 135 52 0.714876 0.699251<-72.5126 121.138 206.587 376.909> 285 264 243 213 0.426879 -0.904309<-96.406 17.7513 79.3944 211.222>
LayerCount: 3
Fore
SplineSet
80 78 m 2
 80 66 83 58 93 58 c 0
 104 58 124 80 150 103 c 0
 187 136 231 176 237 182 c 0
 245 190 246 191 246 198 c 0
 246 202 245 206 243 213 c 0
 231 249 203 324 185 324 c 0
 167 324 162 307 162 287 c 2
 162 263 l 2
 162 258 157 252 151 252 c 0
 136 252 135 280 135 292 c 0
 135 328 144 404 200 404 c 0x6e
 237 404 269 309 285 264 c 0
 289 253 291 249 295 249 c 0
 299 249 307 257 316 266 c 0
 340 290 433 405 496 405 c 0
 520 405 527 379 527 358 c 0
 527 330 507 303 488 303 c 0
 475 303 475 315 472 325 c 0
 470 333 464 342 456 342 c 0
 454 342 452 342 449 340 c 0
 399 310 348 259 318 231 c 0
 307 220 302 215 302 208 c 0
 302 202 330 141 339 121 c 0
 349 99 364 74 378 74 c 0
 386 74 393 82 398 103 c 2
 406 138 l 2
 408 145 419 146 422 137 c 0
 428 120 429 109 429 88 c 0
 429 48 405 0 370 0 c 0x9e
 344 0 335 22 319 52 c 0
 299 90 280 127 270 148 c 0
 264 160 262 164 259 164 c 0
 255 164 251 159 241 150 c 2
 135 52 l 2
 114 33 101 14 80 5 c 0
 72 2 65 0 58 0 c 0
 36 0 18 16 18 43 c 0
 18 71 36 103 59 103 c 0
 72 103 80 97 80 85 c 2
 80 78 l 2
EndSplineSet
EndChar

StartChar: y
Encoding: 121 121 24
Width: 391
VWidth: 0
Flags: HW
HStem: -248 79<30.1326 117.11> 369 28<9.04901 71.7356 166.925 220.906 288.013 351.334 418.959 481.991>
LayerCount: 3
Fore
SplineSet
164 409 m 0
 216 409 223 281 223 231 c 0
 223 186 222 137 222 94 c 0
 222 79 223 73 226 73 c 0
 230 73 237 90 246 110 c 0
 271 168 311 266 311 326 c 0
 311 367 311 406 340 406 c 0
 354 406 358 394 358 384 c 0
 358 348 342 295 322 236 c 0
 306 189 291 138 264 88 c 0
 185 -61 54 -202 -68 -202 c 0
 -93 -202 -122 -189 -122 -164 c 0
 -122 -143 -103 -122 -83 -122 c 0
 -75 -122 -72 -130 -69 -138 c 0
 -62 -157 -47 -162 -31 -162 c 0
 18 -162 80 -110 98 -92 c 0
 139 -51 160 8 165 64 c 0
 167 91 171 142 171 193 c 0
 171 266 162 339 135 339 c 0
 105 339 73 290 55 261 c 0
 50 254 46 244 41 244 c 0
 38 244 33 246 33 255 c 0
 33 278 49 301 65 324 c 0
 96 369 137 409 164 409 c 0
EndSplineSet
EndChar

StartChar: z
Encoding: 122 122 25
Width: 410
VWidth: 0
Flags: HW
HStem: -160 31<346.157 376.899> -10 21G<50.5 66.5> 66 30<129.004 143.134> 329 66<205.709 296.993> 355 64<96.7471 235.343> 447 20G<360 377>
VStem: 32 54<-9.37886 65.3434> 35 50<259.472 350.334> 351 48<395.322 454.708> 377 57<-128.386 -80.2592>
DStem2: 104 124 144 121 0.711046 0.703145<3.14557 274.913>
LayerCount: 3
Fore
SplineSet
103 276 m 0xed
 103 258 91 238 74 238 c 0
 49 238 35 261 35 286 c 0
 35 308 48 346 80 382 c 0
 102 407 133 419 175 419 c 0xed
 231 419 278 395 340 395 c 0
 348 395 351 401 351 409 c 0
 351 424 342 434 342 445 c 0
 342 457 352 467 368 467 c 0
 386 467 399 446 399 426 c 0xf580
 399 387 343 311 279 250 c 2
 144 121 l 2
 135 112 129 107 129 103 c 0
 129 99 135 98 150 96 c 0
 225 88 270 9 301 -46 c 0
 319 -78 347 -129 368 -129 c 0
 375 -129 377 -124 377 -118 c 0
 377 -107 370 -98 370 -88 c 0
 370 -75 380 -65 393 -65 c 0
 414 -65 434 -90 434 -111 c 0
 434 -144 393 -160 364 -160 c 0
 246 -160 183 66 109 66 c 0
 98 66 86 56 86 45 c 0
 86 36 92 29 92 19 c 0
 92 0 74 -10 59 -10 c 0
 42 -10 32 8 32 25 c 0
 32 43 62 86 104 124 c 0
 129 146 155 174 181 200 c 2
 284 302 l 2
 292 310 297 316 297 320 c 0
 297 325 287 327 264 329 c 0xf640
 222 333 148 355 134 355 c 0
 113 355 85 350 85 324 c 0
 85 317 88 311 92 305 c 0
 98 296 103 286 103 276 c 0xed
EndSplineSet
EndChar

StartChar: zero
Encoding: 48 48 52
Width: 351
VWidth: 250
Flags: HW
HStem: -22 32<57.726 207.009> 359 32<49.061 191.694>
VStem: -87 42<99.316 270.015> 290 42<89.6229 268.905>
LayerCount: 3
Fore
SplineSet
226 405 m 0
 282 405 309 343 309 284 c 0
 309 151 222 -8 117 -8 c 0
 52 -8 41 74 41 139 c 0
 41 241 109 405 226 405 c 0
229 371 m 0
 155 371 80 169 80 75 c 0
 80 55 89 32 110 32 c 0
 187 32 260 226 260 296 c 0
 260 329 260 371 229 371 c 0
EndSplineSet
EndChar

StartChar: one
Encoding: 49 49 53
Width: 381
VWidth: 250
Flags: HW
HStem: 0 28<37.0456 112.615 195.669 281.584> 356 29<133.144 212.276 289.865 373.699>
LayerCount: 3
Fore
SplineSet
282 17 m 0
 282 8 273 0 261 0 c 2
 50 0 l 2
 42 0 37 7 37 15 c 0
 37 24 44 28 53 28 c 2
 76 28 l 2
 108 28 120 46 129 71 c 0
 156 150 195 268 209 314 c 0
 211 322 213 329 213 335 c 0
 213 349 205 356 186 356 c 2
 146 356 l 2
 138 356 133 362 133 369 c 0
 133 377 141 385 151 385 c 2
 251 385 l 2
 298 385 349 389 360 389 c 0
 370 389 374 381 374 374 c 0
 374 362 366 358 355 358 c 2
 326 357 l 2
 306 356 294 357 287 335 c 0
 252 227 194 68 194 52 c 0
 194 36 201 33 225 31 c 2
 257 29 l 2
 270 28 282 28 282 17 c 0
EndSplineSet
EndChar

StartChar: two
Encoding: 50 50 54
Width: 460
VWidth: 250
Flags: HW
HStem: -1 60<152.004 445.975> 356 59<90.483 193.587>
VStem: 219 64<219.612 330.638>
LayerCount: 3
Fore
SplineSet
275 392 m 0
 351 392 377 357 377 317 c 0
 377 225 246 136 162 89 c 0
 145 79 132 71 132 66 c 0
 132 59 139 59 157 59 c 0
 160 59 163 59 166 59 c 0
 245 64 349 75 356 75 c 0
 365 75 372 70 370 61 c 2
 360 23 l 2
 354 4 342 0 326 0 c 2
 39 0 l 2
 28 0 27 6 27 14 c 0
 27 24 30 27 37 31 c 0
 138 98 299 211 299 296 c 0
 299 318 280 337 254 337 c 0
 223 337 201 330 174 293 c 0
 171 290 168 288 165 288 c 0
 156 288 153 293 153 300 c 0
 153 348 213 392 275 392 c 0
EndSplineSet
EndChar

StartChar: three
Encoding: 51 51 55
Width: 412
VWidth: 250
Flags: HW
HStem: -204 30<29.0582 78.9534> 335 53<212.661 296.015>
VStem: 261 73<-19.6946 94.2577> 299 75<256.599 331.648>
LayerCount: 3
Fore
SplineSet
261 50 m 0xe0
 261 91 222 115 178 115 c 0
 167 115 155 114 142 111 c 0
 136 110 126 108 121 108 c 0
 116 108 112 111 112 118 c 0
 112 124 120 131 129 136 c 0
 156 151 184 167 209 183 c 0
 263 218 299 260 299 302 c 0xd0
 299 322 281 335 261 335 c 0xe0
 245 335 233 330 224 323 c 0
 213 315 205 305 197 294 c 0
 195 291 189 286 185 286 c 0
 177 286 176 290 176 296 c 0
 176 312 181 325 187 337 c 0
 202 365 230 388 284 388 c 0
 332 388 374 363 374 314 c 0xd0
 374 257 306.600968373 207.613946636 263 180 c 0
 246.600968373 169.613946636 237 165 237 162 c 0
 237 159 245 157 264 152 c 0
 295 143 334 119 334 60 c 0
 334 -75 154 -182 66 -201 c 0
 59 -202 52 -204 46 -204 c 0
 37 -204 29 -201 29 -190 c 0
 29 -182 38 -177 45 -174 c 0
 125 -146 213 -83 247 -7 c 0
 255 11 261 32 261 50 c 0xe0
EndSplineSet
EndChar

StartChar: four
Encoding: 52 52 56
Width: 460
VWidth: 250
Flags: HW
HStem: 6 55<114.004 238.322> 12 57<319.997 388.697>
DStem2: 58 44 126 86 0.70253 0.711654<56.5579 322.873> 233 -16 295 -6 0.264285 0.964445<-104.973 19.7275 177.26 277.273>
LayerCount: 3
Fore
SplineSet
58 44 m 0x80
 152 144 258 259 358 358 c 0
 373 372 387 385 394 385 c 0
 399 385 401 381 401 375 c 0
 401 368 398 358 396 353 c 0
 366 248 320 93 320 79 c 0
 320 72 316 69 335 69 c 0
 346 69 374 74 380 74 c 0
 391 74 393 70 393 58 c 0
 393 53 390 40 388 29 c 0
 385 14 382 12 366 12 c 2
 318 12 l 2x40
 298 12 299 9 295 -6 c 2
 262 -136 l 2
 257 -155 242 -165 208 -165 c 0
 191 -165 183 -161 183 -150 c 0
 183 -145 184 -137 188 -128 c 2
 233 -16 l 2
 237 -7 239 -1 239 3 c 0
 239 10 234 11 221 11 c 2
 60 6 l 2
 44 6 38 10 38 16 c 0
 38 24 49 35 58 44 c 0x80
231 63 m 0
 260 64 256 65 263 90 c 2
 301 232 l 2
 304 242 305 249 305 254 c 0
 305 258 304 260 302 260 c 0
 298 260 289 253 278 242 c 2
 127 86 l 2
 119 78 115 72 115 68 c 0
 115 63 121 61 133 61 c 0x80
 143 61 222 63 231 63 c 0
EndSplineSet
EndChar

StartChar: five
Encoding: 53 53 57
Width: 460
VWidth: 250
Flags: HW
HStem: -168 27<26.1302 70.1297> 317 68<238.85 375.06>
VStem: 222 75<-1.32773 158.752>
LayerCount: 3
Fore
SplineSet
222 82 m 0
 222 139 196 171 162 202 c 0
 158 206 156 211 156 215 c 0
 156 222 161 229 165 237 c 0
 190 281 198 298 238 362 c 0
 247 376 258 385 282 385 c 0
 306 385 325 384 348 384 c 0
 365 384 376 396 385 396 c 0
 390 396 393 390 393 385 c 0
 393 364 383 353 372 333 c 0
 365 319 345 317 326 317 c 2
 273 317 l 2
 246 317 244 310 230 288 c 0
 220 272 216 260 216 254 c 0
 216 247 222 243 228 239 c 0
 268 209 297 155 297 94 c 0
 297 -90 95 -168 39 -168 c 0
 31 -168 26 -162 26 -152 c 0
 26 -146 31 -143 36 -141 c 0
 105 -119 158 -79 189 -28 c 0
 209 5 222 42 222 82 c 0
EndSplineSet
EndChar

StartChar: six
Encoding: 54 54 58
Width: 426
VWidth: 250
Flags: HW
HStem: -14 28<144.232 196.419> 348 24<228.21 267.423> 551 26<375.653 413.624>
VStem: 66 60<31.9586 233.669> 282 52<146.524 333.947>
LayerCount: 3
Fore
SplineSet
224 352 m 0
 224 361 242 372 257 372 c 0
 315 372 334 294 334 218 c 0
 334 143 274 -14 162 -14 c 0
 85 -14 66 71 66 140 c 0
 66 353 260 577 395 577 c 0
 407 577 414 574 414 566 c 0
 414 559 403 555 395 551 c 0
 304 508 217 411 171 308 c 0
 142 241 126 138 126 92 c 0
 126 79 132 14 166 14 c 0
 225 14 282 171 282 279 c 0
 282 310 276 334 261 344 c 0
 254 349 244 352 234 348 c 0
 230 347 224 346 224 352 c 0
EndSplineSet
EndChar

StartChar: seven
Encoding: 55 55 59
Width: 424
VWidth: 250
Flags: HW
HStem: 316 71<59.3269 301.996>
VStem: 44 324
DStem2: 55 -146 88 -162 0.466357 0.884597<-25.2245 519.324>
LayerCount: 3
Fore
SplineSet
50 343 m 2
 61 370 l 2
 67 386 72 387 88 387 c 2
 346 387 l 2
 361 387 368 382 368 373 c 0
 368 360 352 339 340 316 c 2
 88 -162 l 2
 81 -176 76 -182 61 -182 c 0
 52 -182 44 -175 44 -169 c 0
 44 -163 49 -156 55 -146 c 2
 294 295 l 2
 298 303 302 308 302 311 c 0
 302 315 296 316 278 316 c 2
 66 316 l 2
 53 316 46 317 46 326 c 0
 46 330 47 336 50 343 c 2
EndSplineSet
EndChar

StartChar: eight
Encoding: 56 56 60
Width: 444
VWidth: 250
Flags: HW
HStem: -5 26<124.561 205.921> 562 34<233.237 329.44>
VStem: 55 48<33.524 177.993> 150 50<388.682 533.648> 254 54<66.7938 225.964> 346 47<440.337 550.549>
DStem2: 232 366 184 320 0.393539 -0.919308<-111.171 18.9794 62.4542 206.363>
LayerCount: 3
Fore
SplineSet
154 -5 m 0
 92 -5 55 33 55 94 c 0
 55 195 146 272 179 296 c 0
 195 307 190 305 184 320 c 0
 172 348 150 408 150 454 c 0
 150 530 199 596 290 596 c 0
 343 596 393 567 393 496 c 0
 393 420 320 368 276 345 c 0
 259 336 252 332 252 326 c 0
 252 322 254 317 258 310 c 0
 275 275 308 213 308 144 c 0
 308 54 233 -5 154 -5 c 0
185 273 m 0
 158 247 103 183 103 92 c 0
 103 46 126 21 160 21 c 0
 232 21 254 89 254 149 c 0
 254 190 224 245 209 271 c 0
 204 280 202 284 199 284 c 0
 196 284 193 281 185 273 c 0
290 562 m 0
 234 562 200 526 200 477 c 0
 200 444 216 396 232 366 c 0
 238 355 240 350 243 350 c 0
 246 350 250 354 259 362 c 0
 290 387 346 451 346 505 c 0
 346 541 318 562 290 562 c 0
EndSplineSet
EndChar

StartChar: nine
Encoding: 57 57 61
Width: 398
VWidth: 250
Flags: HW
HStem: -256 26<52.2285 100.881> 56 48<175.734 289.189> 384 26<162.051 258.637>
VStem: 50 48<183.181 319.198> 364 54<44.5173 270.954>
LayerCount: 3
Fore
SplineSet
228 408 m 0
 305 408 324 321 324 252 c 0
 324 39 135 -182 0 -182 c 0
 -12 -182 -19 -177 -19 -169 c 0
 -19 -162 -8 -156 0 -153 c 0
 141 -91 265 102 265 300 c 0
 265 327 258 376 224 376 c 0
 160 376 111 235 111 121 c 0
 111 86 112 53 141 42 c 0
 147 40 160 40 160 33 c 0
 160 26 151 16 138 16 c 0
 75 16 57 96 57 174 c 0
 57 247 109 408 228 408 c 0
EndSplineSet
EndChar

StartChar: ae
Encoding: 230 230 70
Width: 523
VWidth: 0
Flags: HW
LayerCount: 3
Fore
SplineSet
440 381 m 0
 409 381 335 279 335 244 c 0
 335 236 338 229 346 229 c 0
 376 229 456 317 456 358 c 0
 456 367 453 381 440 381 c 0
381 377 m 0
 397 388 424 405 453 405 c 0
 483 405 494 387 494 359 c 0
 494 305 451 255 407 229 c 0
 377 211 346 205 329 201 c 0
 317 198 316 198 313 185 c 0
 309 170 303 140 303 107 c 0
 303 81 310 54 332 54 c 0
 379 54 409 99 427 129 c 0
 429 133 434 146 439 146 c 0
 452 146 450 131 447 122 c 0
 429 65 381 -1 308 -1 c 0
 260 -1 252 83 251 128 c 0
 251 143 251 147 249 147 c 0
 246 147 239 139 232 129 c 0
 199 84 127 0 52 0 c 0
 29 0 24 29 24 53 c 0
 24 79 34 106 45 133 c 0
 91 243 233 374 326 374 c 0
 336 374 347 373 356 372 c 0
 376 369 366 367 381 377 c 0
317 326 m 0
 317 333 310 341 304 341 c 0
 226 341 76 177 76 78 c 0
 76 66 84 52 98 52 c 0
 130 52 178 99 223 155 c 0
 275 220 317 298 317 326 c 0
EndSplineSet
EndChar

StartChar: oe
Encoding: 339 339 71
Width: 518
VWidth: 0
Flags: HW
HStem: -7 24<91.9961 151.073> 0 49<282.634 363.008> 376 33<397.039 446.876> 384 27<217.609 274.771>
VStem: 28 45<34.1672 201.069> 284 39<231.977 291.483> 448 39<309.674 375.877>
LayerCount: 3
Fore
SplineSet
347 363 m 0x9e
 367 381 403 409 440 409 c 0
 469 409 487 384 487 358 c 0
 487 298 452 256 413 230 c 0
 378 206 340 194 318 190 c 0
 298 186 300 190 289 160 c 0
 283 144 277 110 277 98 c 0
 277 72 288 49 318 49 c 0
 366 49 410 99 430 120 c 0
 433 123 436 124 438 124 c 0
 443 124 447 120 447 113 c 0
 447 111 447 109 446 106 c 0
 436 80 368 0 293 0 c 0x6e
 268 0 248 12 235 34 c 0
 230 42 229 46 227 46 c 0
 225 46 221 42 211 33 c 0
 192 17 154 -7 116 -7 c 0
 55 -7 28 61 28 123 c 0
 28 279 146 411 261 411 c 0
 295 411 314 384 320 364 c 0
 324 350 325 345 328 345 c 0
 332 345 337 354 347 363 c 0x9e
427 376 m 0
 396 376 323 285 323 240 c 0
 323 231 328 225 336 225 c 0
 358 225 448 312 448 352 c 0
 448 368 438 376 427 376 c 0
251 384 m 0x9e
 229 384 200 360 169 326 c 0
 114 266 73 172 73 94 c 0
 73 60 83 17 117 17 c 0
 150 17 184 53 212 103 c 0
 254 178 284 283 284 338 c 0
 284 360 274 384 251 384 c 0x9e
EndSplineSet
EndChar

StartChar: dollar
Encoding: 36 36 72
Width: 478
VWidth: 0
Flags: HWO
VStem: 26 62<52.8618 125.936> 159 67<433.513 560.932> 291 70<94.7143 241.118> 394 69<486.704 580.212>
DStem2: 127 -75 161 -88 0.245612 0.969368<-31.5577 74.8143 130.009 365.584 506.24 688.012>
LayerCount: 3
Fore
SplineSet
351 660 m 0
 351 654 348 641 348 634 c 0
 348 629 352 630 369 625 c 0
 402 616 463 586 463 520 c 0
 463 496 448 470 424 470 c 0
 405 470 386 480 386 498 c 0
 386 507 394 526 394 544 c 0
 394 572 380 588 359 596 c 0
 354 598 349 599 346 599 c 0
 338 599 334 593 330 579 c 2
 285 402 l 2
 283 393 282 387 282 381 c 0
 282 375 284 373 289 365 c 0
 312 333 361 251 361 178 c 0
 361 60 258 16 208 4 c 0
 182 -2 181 3 176 -20 c 0
 172 -38 166 -64 161 -88 c 0
 158 -102 154 -123 138 -123 c 0
 124 -123 119 -115 119 -106 c 0
 119 -96 125 -83 127 -75 c 2
 144 -18 l 2
 146 -11 148 -6 148 -3 c 0
 148 2 144 0 130 4 c 0
 95 14 26 42 26 115 c 0
 26 148 50 178 78 178 c 0
 97 178 117 168 117 138 c 0
 117 132 111 128 106 122 c 0
 94 108 88 95 88 86 c 0
 88 53 119 38 139 33 c 0
 144 32 147 31 150 31 c 0
 160 31 161 38 165 53 c 2
 228 283 l 2
 231 292 231 295 231 300 c 0
 231 308 228 317 218 331 c 0
 195 364 159 427 159 488 c 0
 159 586 250 622 291 629 c 0
 318 634 314 632 317 644 c 0
 321 657 321 671 336 671 c 0
 347 671 351 668 351 660 c 0
243 241 m 2
 196 56 l 2
 194 49 194 45 194 42 c 0
 194 39 195 37 198 37 c 0
 201 37 206 38 213 42 c 0
 242 56 291 92 291 160 c 0
 291 189 280 217 271 238 c 0
 261 259 257 270 254 270 c 0
 251 270 248 261 243 241 c 2
287 595 m 0
 246 584 226 555 226 516 c 0
 226 493 232 467 245 439 c 0
 253 422 256 414 258 414 c 0
 261 414 263 427 268 447 c 2
 303 581 l 2
 304 585 304 588 304 590 c 0
 304 595 302 597 298 597 c 0
 295 597 292 596 287 595 c 0
EndSplineSet
EndChar
